<svg width="760" height="560" viewBox="0 0 760 560" fill="none" xmlns="http://www.w3.org/2000/svg">
  <rect width="760" height="560" rx="40" fill="#E8F6F3"/>
  <circle cx="113" cy="103" r="49" fill="#D4EEE8"/>
  <circle cx="649" cy="94" r="58" fill="#C8E7FF"/>
  <rect x="91" y="134" width="578" height="315" rx="32" fill="white"/>
  <rect x="127" y="177" width="157" height="233" rx="24" fill="#F4FBF9"/>
  <rect x="315" y="177" width="320" height="66" rx="18" fill="#F7FAFC"/>
  <rect x="315" y="265" width="145" height="145" rx="22" fill="#E8F6F3"/>
  <rect x="480" y="265" width="155" height="145" rx="22" fill="#FFF2DE"/>
  <circle cx="206" cy="236" r="46" fill="#C8E7FF"/>
  <path d="M190 236H222" stroke="#0F766E" stroke-width="16" stroke-linecap="round"/>
  <path d="M206 220V252" stroke="#0F766E" stroke-width="16" stroke-linecap="round"/>
  <circle cx="204" cy="327" r="51" fill="#0F766E"/>
  <rect x="173" y="381" width="62" height="18" rx="9" fill="#0F766E" fill-opacity="0.2"/>
  <circle cx="386" cy="211" r="12" fill="#14B8A6"/>
  <rect x="411" y="201" width="172" height="19" rx="9.5" fill="#DCEAF6"/>
  <rect x="315" y="368" width="145" height="14" rx="7" fill="#7DD3C6"/>
  <rect x="315" y="340" width="116" height="14" rx="7" fill="#BFE9E1"/>
  <path d="M535 332C535 304.386 557.386 282 585 282C612.614 282 635 304.386 635 332V410H535V332Z" fill="#F59E0B"/>
  <circle cx="585" cy="317" r="26" fill="#FFF7E8"/>
  <path d="M584.5 304V331" stroke="#F59E0B" stroke-width="10" stroke-linecap="round"/>
  <path d="M571 317.5H598" stroke="#F59E0B" stroke-width="10" stroke-linecap="round"/>
</svg>
